<svg width="100%" height="100%" viewBox="0 0 32 32" fill="none"
  xmlns="http://www.w3.org/2000/svg">
  <path d="M26 7.5H22.535L20.8312 4.945C20.74 4.80819 20.6164 4.696 20.4714 4.61838C20.3264 4.54076 20.1645 4.5001 20 4.5H12C11.8355 4.5001 11.6736 4.54076 11.5286 4.61838C11.3836 4.696 11.26 4.80819 11.1687 4.945L9.46375 7.5H6C5.20435 7.5 4.44129 7.81607 3.87868 8.37868C3.31607 8.94129 3 9.70435 3 10.5V24.5C3 25.2956 3.31607 26.0587 3.87868 26.6213C4.44129 27.1839 5.20435 27.5 6 27.5H26C26.7956 27.5 27.5587 27.1839 28.1213 26.6213C28.6839 26.0587 29 25.2956 29 24.5V10.5C29 9.70435 28.6839 8.94129 28.1213 8.37868C27.5587 7.81607 26.7956 7.5 26 7.5ZM20.5 17C20.5 17.89 20.2361 18.76 19.7416 19.5001C19.2471 20.2401 18.5443 20.8169 17.7221 21.1575C16.8998 21.4981 15.995 21.5872 15.1221 21.4135C14.2492 21.2399 13.4474 20.8113 12.818 20.182C12.1887 19.5526 11.7601 18.7508 11.5865 17.8779C11.4128 17.005 11.5019 16.1002 11.8425 15.2779C12.1831 14.4557 12.7599 13.7529 13.4999 13.2584C14.24 12.7639 15.11 12.5 16 12.5C17.1935 12.5 18.3381 12.9741 19.182 13.818C20.0259 14.6619 20.5 15.8065 20.5 17Z" fill="currentColor"/>
</svg>
