<svg width="100%" height="100%" viewBox="0 0 32 32" fill="none"
  xmlns="http://www.w3.org/2000/svg">
  <path d="M23.5 19V13C23.5 12.7348 23.6054 12.4804 23.7929 12.2929C23.9804 12.1054 24.2348 12 24.5 12C24.7652 12 25.0196 12.1054 25.2071 12.2929C25.3946 12.4804 25.5 12.7348 25.5 13V19C25.5 19.2652 25.3946 19.5196 25.2071 19.7071C25.0196 19.8946 24.7652 20 24.5 20C24.2348 20 23.9804 19.8946 23.7929 19.7071C23.6054 19.5196 23.5 19.2652 23.5 19ZM28.5 10C28.2348 10 27.9804 10.1054 27.7929 10.2929C27.6054 10.4804 27.5 10.7348 27.5 11V21C27.5 21.2652 27.6054 21.5196 27.7929 21.7071C27.9804 21.8946 28.2348 22 28.5 22C28.7652 22 29.0196 21.8946 29.2071 21.7071C29.3946 21.5196 29.5 21.2652 29.5 21V11C29.5 10.7348 29.3946 10.4804 29.2071 10.2929C29.0196 10.1054 28.7652 10 28.5 10ZM7.24 4.3275C7.15218 4.22851 7.04559 4.14793 6.9264 4.09044C6.80721 4.03294 6.6778 3.99968 6.54566 3.99257C6.41352 3.98546 6.28128 4.00465 6.15661 4.04902C6.03194 4.0934 5.91732 4.16207 5.81939 4.25107C5.72146 4.34007 5.64216 4.44762 5.5861 4.56749C5.53004 4.68736 5.49833 4.81717 5.49281 4.94938C5.48728 5.0816 5.50806 5.21359 5.55392 5.33772C5.59979 5.46185 5.66983 5.57564 5.76 5.6725L9.69375 10H4.5C3.96957 10 3.46086 10.2107 3.08579 10.5858C2.71071 10.9609 2.5 11.4696 2.5 12V20C2.5 20.5304 2.71071 21.0391 3.08579 21.4142C3.46086 21.7893 3.96957 22 4.5 22H10.1562L18.8862 28.7887C19.034 28.9036 19.211 28.9747 19.3971 28.9939C19.5832 29.0132 19.771 28.9798 19.9391 28.8977C20.1072 28.8155 20.2489 28.6878 20.3481 28.5291C20.4472 28.3704 20.4999 28.1871 20.5 28V21.8862L25.76 27.6725C25.8478 27.7715 25.9544 27.8521 26.0736 27.9096C26.1928 27.9671 26.3222 28.0003 26.4543 28.0074C26.5865 28.0145 26.7187 27.9953 26.8434 27.951C26.9681 27.9066 27.0827 27.8379 27.1806 27.7489C27.2785 27.6599 27.3578 27.5524 27.4139 27.4325C27.47 27.3126 27.5017 27.1828 27.5072 27.0506C27.5127 26.9184 27.4919 26.7864 27.4461 26.6623C27.4002 26.5381 27.3302 26.4244 27.24 26.3275L7.24 4.3275ZM18.76 14.0262C18.8958 14.1756 19.0735 14.2804 19.2699 14.3268C19.4664 14.3733 19.6722 14.3592 19.8605 14.2864C20.0488 14.2136 20.2106 14.0856 20.3247 13.9191C20.4389 13.7527 20.5 13.5556 20.5 13.3537V4C20.4999 3.81288 20.4472 3.62955 20.3481 3.47087C20.2489 3.31218 20.1072 3.18449 19.9391 3.10232C19.771 3.02015 19.5832 2.9868 19.3971 3.00606C19.211 3.02531 19.034 3.0964 18.8862 3.21125L13.905 7.08625C13.7962 7.17091 13.7062 7.27715 13.6404 7.39829C13.5746 7.51943 13.5346 7.65285 13.5229 7.79018C13.5112 7.92751 13.5279 8.06579 13.5722 8.19633C13.6164 8.32687 13.6872 8.44685 13.78 8.54875L18.76 14.0262Z" fill="currentColor"/>
</svg>
