<svg width="100%" height="100%" viewBox="0 0 32 32" fill="none"
  xmlns="http://www.w3.org/2000/svg">
  <path d="M29.0001 16.0001C29.0002 13.4289 28.2377 10.9155 26.8093 8.77758C25.3808 6.6397 23.3505 4.97343 20.975 3.98947C18.5996 3.00551 15.9857 2.74807 13.4639 3.2497C10.9421 3.75132 8.62569 4.98949 6.80761 6.80762C4.98948 8.6257 3.75131 10.9421 3.24969 13.4639C2.74806 15.9857 3.0055 18.5996 3.98946 20.975C4.97342 23.3505 6.6397 25.3808 8.77758 26.8093C10.9155 28.2377 13.4289 29.0002 16.0001 29.0001H16.0114C19.4572 28.9971 22.7609 27.6262 25.1965 25.1885C27.632 22.7509 29.0001 19.446 29.0001 16.0001ZM6.14761 11.1151L12.5489 12.2839L5.83136 20.1914C5.23797 18.7425 4.9593 17.184 5.01383 15.6192C5.06835 14.0545 5.45481 12.5192 6.14761 11.1151ZM26.1689 11.8076C26.7623 13.2567 27.0409 14.8154 26.9864 16.3804C26.9319 17.9453 26.5454 19.4808 25.8526 20.8851L19.4514 19.7164L26.1689 11.8076ZM25.1589 9.90762L20.9439 14.8751L17.4539 5.09762C19.8498 5.41097 22.0742 6.50999 23.7789 8.22261C24.293 8.73765 24.7552 9.30204 25.1589 9.90762ZM15.3039 5.02386L17.4926 11.1489L7.28761 9.29011C7.57587 8.91442 7.88775 8.55744 8.22136 8.22136C10.1103 6.32327 12.6309 5.18534 15.3039 5.02386ZM6.84136 22.0926L11.0564 17.1251L14.5464 26.8976C12.9936 26.6907 11.503 26.1546 10.1742 25.325C8.84542 24.4955 7.70912 23.3918 6.84136 22.0876V22.0926ZM16.6964 26.9751L14.5076 20.8501L17.3926 21.3751L24.7076 22.7114C23.7548 23.9549 22.546 24.9792 21.163 25.715C19.78 26.4509 18.255 26.881 16.6914 26.9764L16.6964 26.9751Z" fill="currentColor"/>
</svg>
