<svg width="100%" height="100%" viewBox="0 0 32 32" fill="none"
  xmlns="http://www.w3.org/2000/svg">
  <path d="M18.9387 3.10152C18.7706 3.01958 18.5828 2.98645 18.3968 3.00589C18.2107 3.02534 18.0338 3.09658 17.8862 3.21152L9.15625 10.0003H3.5C2.96957 10.0003 2.46086 10.211 2.08579 10.5861C1.71071 10.9611 1.5 11.4698 1.5 12.0003V20.0003C1.5 20.5307 1.71071 21.0394 2.08579 21.4145C2.46086 21.7896 2.96957 22.0003 3.5 22.0003H9.15625L17.8862 28.789C18.034 28.9039 18.211 28.975 18.3971 28.9942C18.5832 29.0135 18.771 28.9801 18.9391 28.898C19.1072 28.8158 19.2489 28.6881 19.3481 28.5294C19.4472 28.3707 19.4999 28.1874 19.5 28.0003V4.00027C19.5 3.81293 19.4474 3.62935 19.3482 3.47045C19.249 3.31155 19.1071 3.18372 18.9387 3.10152ZM8.5 20.0003H3.5V12.0003H8.5V20.0003ZM24.25 12.6953C25.0543 13.6084 25.4981 14.7834 25.4981 16.0003C25.4981 17.2171 25.0543 18.3922 24.25 19.3053C24.0733 19.4994 23.8274 19.6163 23.5653 19.6307C23.3032 19.6451 23.046 19.5559 22.8491 19.3823C22.6522 19.2087 22.5315 18.9647 22.5129 18.7028C22.4944 18.441 22.5795 18.1824 22.75 17.9828C23.2323 17.435 23.4984 16.7301 23.4984 16.0003C23.4984 15.2704 23.2323 14.5656 22.75 14.0178C22.5795 13.8182 22.4944 13.5596 22.5129 13.2977C22.5315 13.0359 22.6522 12.7918 22.8491 12.6183C23.046 12.4447 23.3032 12.3554 23.5653 12.3699C23.8274 12.3843 24.0733 12.5011 24.25 12.6953ZM30.5 16.0003C30.5014 18.4605 29.5947 20.8347 27.9538 22.6678C27.7756 22.8605 27.5288 22.9755 27.2667 22.9879C27.0045 23.0004 26.748 22.9092 26.5524 22.7341C26.3568 22.5591 26.2379 22.3142 26.2214 22.0522C26.2048 21.7903 26.2918 21.5323 26.4638 21.334C27.7755 19.8673 28.5007 17.9686 28.5007 16.0009C28.5007 14.0332 27.7755 12.1345 26.4638 10.6678C26.3737 10.5703 26.304 10.456 26.2586 10.3313C26.2131 10.2067 26.193 10.0743 26.1993 9.94174C26.2055 9.80923 26.2381 9.67929 26.2951 9.5595C26.3521 9.4397 26.4323 9.33244 26.5312 9.24396C26.63 9.15548 26.7455 9.08755 26.8708 9.04413C26.9962 9.00071 27.1289 8.98267 27.2613 8.99105C27.3937 8.99943 27.5231 9.03408 27.642 9.09296C27.7609 9.15184 27.8669 9.23379 27.9538 9.33402C29.5952 11.1663 30.502 13.5403 30.5 16.0003Z" fill="currentColor"/>
</svg>
