<svg width="100%" height="100%" viewBox="0 0 32 32" fill="none"
  xmlns="http://www.w3.org/2000/svg">
  <path d="M29.8298 9.82742C29.4587 10.1998 29.0176 10.495 28.5319 10.6963C28.0462 10.8975 27.5255 11.0007 26.9998 10.9999C26.678 10.9997 26.3574 10.9611 26.0448 10.8849L22.716 17.0674C22.7535 17.1024 22.791 17.1374 22.8273 17.1737C23.3562 17.7027 23.7261 18.3694 23.8951 19.0982C24.0641 19.8269 24.0254 20.5884 23.7833 21.2962C23.5412 22.0041 23.1055 22.6298 22.5256 23.1024C21.9457 23.575 21.2449 23.8755 20.5028 23.9699C19.7607 24.0642 19.0071 23.9485 18.3274 23.636C17.6478 23.3234 17.0694 22.8266 16.6579 22.2018C16.2465 21.5771 16.0185 20.8494 15.9998 20.1016C15.9811 19.3538 16.1725 18.6157 16.5523 17.9712L14.0298 15.4487C13.4144 15.8102 12.7135 16.0006 11.9998 15.9999C11.6776 16.0002 11.3566 15.962 11.0435 15.8862L7.71479 22.0662C7.75229 22.1012 7.79104 22.1362 7.82729 22.1724C8.38661 22.7319 8.76748 23.4446 8.92174 24.2205C9.07601 24.9964 8.99674 25.8006 8.69397 26.5315C8.39119 27.2623 7.8785 27.887 7.22072 28.3265C6.56295 28.766 5.78962 29.0005 4.99854 29.0005C4.20745 29.0005 3.43413 28.766 2.77635 28.3265C2.11857 27.887 1.60588 27.2623 1.30311 26.5315C1.00033 25.8006 0.921062 24.9964 1.07533 24.2205C1.2296 23.4446 1.61047 22.7319 2.16979 22.1724C2.65647 21.686 3.26041 21.3333 3.92324 21.1485C4.58607 20.9637 5.28537 20.953 5.95354 21.1174L9.28229 14.9349C9.24479 14.8999 9.20729 14.8649 9.17104 14.8287C8.79951 14.4572 8.50479 14.0162 8.30371 13.5309C8.10263 13.0455 7.99914 12.5253 7.99914 11.9999C7.99914 11.4746 8.10263 10.9543 8.30371 10.469C8.50479 9.98362 8.79951 9.54262 9.17104 9.17117C9.8592 8.48106 10.7757 8.06593 11.7483 8.00375C12.7209 7.94157 13.6827 8.23662 14.4532 8.83348C15.2236 9.43035 15.7496 10.288 15.9324 11.2452C16.1153 12.2025 15.9423 13.1936 15.446 14.0324L17.9685 16.5549C18.8698 16.0268 19.9412 15.8699 20.956 16.1174L24.2848 9.93492C24.2473 9.89992 24.2085 9.86492 24.1723 9.82867C23.8008 9.45723 23.506 9.01623 23.305 8.53087C23.1039 8.04551 23.0004 7.52529 23.0004 6.99992C23.0004 6.47456 23.1039 5.95434 23.305 5.46898C23.506 4.98362 23.8008 4.54262 24.1723 4.17117C24.9225 3.42094 25.94 2.99947 27.001 2.99947C28.062 2.99947 29.0796 3.42094 29.8298 4.17117C30.58 4.9214 31.0015 5.93894 31.0015 6.99992C31.0015 8.06091 30.58 9.07844 29.8298 9.82867V9.82742Z" fill="currentColor"/>
</svg>
