<svg width="100%" height="100%" viewBox="0 0 32 32" fill="none"
  xmlns="http://www.w3.org/2000/svg">
  <path d="M21.75 6.96861C20.206 5.1854 18.4682 3.57967 16.5688 2.18111C16.4006 2.06332 16.2003 2.00014 15.995 2.00014C15.7897 2.00014 15.5894 2.06332 15.4213 2.18111C13.5253 3.58026 11.7909 5.18596 10.25 6.96861C6.81375 10.9149 5 15.0749 5 18.9999C5 21.9172 6.15893 24.7151 8.22183 26.778C10.2847 28.8409 13.0826 29.9999 16 29.9999C18.9174 29.9999 21.7153 28.8409 23.7782 26.778C25.8411 24.7151 27 21.9172 27 18.9999C27 15.0749 25.1863 10.9149 21.75 6.96861ZM22.9813 20.1674C22.7219 21.6157 22.0251 22.9499 20.9846 23.9902C19.944 25.0306 18.6097 25.7271 17.1612 25.9861C17.1079 25.9947 17.054 25.9993 17 25.9999C16.7492 25.9998 16.5075 25.9055 16.323 25.7356C16.1384 25.5657 16.0245 25.3326 16.0037 25.0826C15.9829 24.8327 16.0569 24.584 16.2108 24.386C16.3648 24.188 16.5876 24.0551 16.835 24.0136C18.9062 23.6649 20.6637 21.9074 21.015 19.8324C21.0594 19.5708 21.2059 19.3376 21.4223 19.184C21.6387 19.0305 21.9072 18.9692 22.1688 19.0136C22.4303 19.058 22.6635 19.2045 22.8171 19.4209C22.9706 19.6373 23.0319 19.9058 22.9875 20.1674H22.9813Z" fill="currentColor"/>
</svg>
